<svg width="1646" height="544" viewBox="0 0 1646 544" fill="none" xmlns="http://www.w3.org/2000/svg">
<rect x="611" y="405" width="707" height="94" rx="47" fill="#5884E7"/>
<path d="M722.697 445.5H728.61L721.228 453.942L729.277 463H723.295L715.485 454.421V463H710.444V445.5H715.485V453.686L722.697 445.5ZM730.319 458.061C730.319 456.261 731.06 454.911 732.541 454.011C734.022 453.122 735.896 452.678 738.164 452.678C739.337 452.678 740.391 452.797 741.325 453.037C742.259 453.299 742.909 453.538 743.273 453.754L743.837 454.147V451.584C743.837 450.832 743.553 450.2 742.983 449.687C742.413 449.186 741.462 448.935 740.129 448.935C739.172 448.935 738.317 449.112 737.565 449.465C736.779 449.829 736.386 450.388 736.386 451.14H731.208C731.219 449.146 732.028 447.648 733.635 446.645C735.23 445.654 737.395 445.158 740.129 445.158C742.897 445.158 745.045 445.694 746.572 446.765C748.11 447.836 748.879 449.442 748.879 451.584V457.053C748.879 457.759 748.964 458.249 749.135 458.522C749.306 458.796 749.602 458.933 750.024 458.933L750.759 458.796V463C750.326 463.228 749.602 463.342 748.588 463.342C747.278 463.342 746.287 463.057 745.615 462.487C745.011 461.997 744.629 461.547 744.47 461.137L744.367 460.898H744.111C744.111 460.944 744.054 461.046 743.94 461.206C743.826 461.354 743.604 461.559 743.273 461.821C742.954 462.083 742.573 462.316 742.128 462.521C740.966 463.068 739.445 463.342 737.565 463.342C735.492 463.342 733.766 462.892 732.387 461.992C731.009 461.103 730.319 459.793 730.319 458.061ZM739.633 459.531C740.533 459.531 741.342 459.417 742.06 459.189C742.744 458.972 743.216 458.75 743.479 458.522L743.837 458.198V457.155C743.746 457.064 743.627 456.967 743.479 456.865C743.285 456.739 742.835 456.586 742.128 456.403C741.376 456.21 740.545 456.113 739.633 456.113C736.876 456.113 735.498 456.682 735.498 457.822C735.498 458.961 736.876 459.531 739.633 459.531ZM766.516 445.5H772.429L765.046 453.942L773.095 463H767.114L759.304 454.421V463H754.262V445.5H759.304V453.686L766.516 445.5ZM802.028 458.129C802.028 459.952 801.453 461.217 800.302 461.923C799.14 462.641 797.22 463 794.543 463H784.135V445.5H793.62C796.218 445.5 798.103 445.859 799.277 446.577C800.462 447.294 801.054 448.451 801.054 450.046C801.054 450.604 800.957 451.123 800.764 451.601C800.57 452.068 800.325 452.427 800.029 452.678C799.425 453.19 798.889 453.504 798.422 453.618L798.115 453.686V453.942C798.4 453.942 798.85 454.068 799.465 454.318C799.909 454.512 800.308 454.74 800.661 455.002C801.049 455.298 801.373 455.725 801.635 456.284C801.897 456.842 802.028 457.457 802.028 458.129ZM796.85 457.617C796.85 456.375 795.927 455.754 794.082 455.754H789.177V459.428H794.082C795.927 459.428 796.85 458.824 796.85 457.617ZM789.177 452.507H793.449C795.056 452.507 795.859 451.931 795.859 450.781C795.859 449.641 795.056 449.072 793.449 449.072H789.177V452.507ZM815.324 463.342C812.362 463.342 809.958 462.539 808.112 460.932C806.267 459.326 805.344 457.098 805.344 454.25C805.344 451.402 806.267 449.174 808.112 447.568C809.958 445.961 812.362 445.158 815.324 445.158C818.286 445.158 820.69 445.961 822.536 447.568C824.382 449.174 825.305 451.402 825.305 454.25C825.305 457.098 824.382 459.326 822.536 460.932C820.69 462.539 818.286 463.342 815.324 463.342ZM815.324 459.018C816.817 459.018 817.99 458.574 818.845 457.685C819.699 456.796 820.126 455.651 820.126 454.25C820.126 452.849 819.699 451.704 818.845 450.815C817.99 449.926 816.817 449.482 815.324 449.482C813.82 449.482 812.653 449.926 811.821 450.815C810.966 451.704 810.539 452.849 810.539 454.25C810.539 455.651 810.966 456.796 811.821 457.685C812.653 458.574 813.82 459.018 815.324 459.018ZM844.445 438.852V438.955C844.445 441.894 842.577 443.364 838.84 443.364C835.103 443.364 833.234 441.894 833.234 438.955V438.852H836.806V438.955C836.806 439.376 836.977 439.724 837.319 439.997C837.672 440.259 838.185 440.39 838.857 440.39C839.529 440.39 840.03 440.259 840.361 439.997C840.703 439.724 840.874 439.376 840.874 438.955V438.852H844.445ZM848.359 463H843.317V452.507L843.745 450.217H843.386L842.583 452.507L835.798 463H829.492V445.5H834.533V455.993L834.123 458.095H834.465L835.268 455.993L842.07 445.5H848.359V463ZM857.69 449.841H851.145V445.5H869.311V449.841H862.731V463H857.69V449.841ZM890.981 463H885.939V452.507L886.367 450.217H886.008L885.205 452.507L878.42 463H872.114V445.5H877.155V455.993L876.745 458.095H877.087L877.89 455.993L884.692 445.5H890.981V463ZM922.341 458.129C922.341 459.952 921.765 461.217 920.615 461.923C919.453 462.641 917.533 463 914.855 463H904.448V445.5H913.933C916.53 445.5 918.416 445.859 919.589 446.577C920.774 447.294 921.367 448.451 921.367 450.046C921.367 450.604 921.27 451.123 921.076 451.601C920.882 452.068 920.638 452.427 920.341 452.678C919.737 453.19 919.202 453.504 918.735 453.618L918.427 453.686V453.942C918.712 453.942 919.162 454.068 919.777 454.318C920.222 454.512 920.62 454.74 920.974 455.002C921.361 455.298 921.686 455.725 921.948 456.284C922.21 456.842 922.341 457.457 922.341 458.129ZM917.163 457.617C917.163 456.375 916.24 455.754 914.394 455.754H909.489V459.428H914.394C916.24 459.428 917.163 458.824 917.163 457.617ZM909.489 452.507H913.762C915.368 452.507 916.171 451.931 916.171 450.781C916.171 449.641 915.368 449.072 913.762 449.072H909.489V452.507ZM944.216 463.342C941.254 463.342 938.85 462.539 937.004 460.932C935.158 459.326 934.235 457.098 934.235 454.25C934.235 451.402 935.158 449.174 937.004 447.568C938.85 445.961 941.254 445.158 944.216 445.158C945.856 445.158 947.332 445.415 948.642 445.927C949.975 446.451 951.006 447.101 951.735 447.875C953.228 449.493 953.974 451.094 953.974 452.678H948.796C948.705 452.325 948.545 451.954 948.317 451.567C948.112 451.236 947.856 450.917 947.548 450.61C947.207 450.302 946.734 450.04 946.13 449.824C945.537 449.596 944.899 449.482 944.216 449.482C942.712 449.482 941.544 449.926 940.712 450.815C939.858 451.704 939.431 452.849 939.431 454.25C939.431 455.651 939.858 456.796 940.712 457.685C941.544 458.574 942.712 459.018 944.216 459.018C945.378 459.018 946.341 458.745 947.104 458.198C947.856 457.685 948.329 457.161 948.522 456.625L948.796 455.822H953.974C953.974 457.417 953.228 459.012 951.735 460.607C951.018 461.394 949.986 462.049 948.642 462.573C947.332 463.085 945.856 463.342 944.216 463.342ZM975.9 458.129C975.9 459.952 975.325 461.217 974.174 461.923C973.012 462.641 971.092 463 968.415 463H958.007V445.5H967.492C970.09 445.5 971.975 445.859 973.149 446.577C974.334 447.294 974.926 448.451 974.926 450.046C974.926 450.604 974.829 451.123 974.636 451.601C974.442 452.068 974.197 452.427 973.901 452.678C973.297 453.19 972.762 453.504 972.294 453.618L971.987 453.686V453.942C972.272 453.942 972.722 454.068 973.337 454.318C973.781 454.512 974.18 454.74 974.533 455.002C974.921 455.298 975.245 455.725 975.507 456.284C975.769 456.842 975.9 457.457 975.9 458.129ZM970.722 457.617C970.722 456.375 969.799 455.754 967.954 455.754H963.049V459.428H967.954C969.799 459.428 970.722 458.824 970.722 457.617ZM963.049 452.507H967.321C968.928 452.507 969.731 451.931 969.731 450.781C969.731 449.641 968.928 449.072 967.321 449.072H963.049V452.507ZM989.196 463.342C986.234 463.342 983.83 462.539 981.984 460.932C980.139 459.326 979.216 457.098 979.216 454.25C979.216 451.402 980.139 449.174 981.984 447.568C983.83 445.961 986.234 445.158 989.196 445.158C992.159 445.158 994.562 445.961 996.408 447.568C998.254 449.174 999.177 451.402 999.177 454.25C999.177 457.098 998.254 459.326 996.408 460.932C994.562 462.539 992.159 463.342 989.196 463.342ZM989.196 459.018C990.689 459.018 991.862 458.574 992.717 457.685C993.571 456.796 993.999 455.651 993.999 454.25C993.999 452.849 993.571 451.704 992.717 450.815C991.862 449.926 990.689 449.482 989.196 449.482C987.692 449.482 986.525 449.926 985.693 450.815C984.838 451.704 984.411 452.849 984.411 454.25C984.411 455.651 984.838 456.796 985.693 457.685C986.525 458.574 987.692 459.018 989.196 459.018ZM1018.32 438.852V438.955C1018.32 441.894 1016.45 443.364 1012.71 443.364C1008.97 443.364 1007.11 441.894 1007.11 438.955V438.852H1010.68V438.955C1010.68 439.376 1010.85 439.724 1011.19 439.997C1011.54 440.259 1012.06 440.39 1012.73 440.39C1013.4 440.39 1013.9 440.259 1014.23 439.997C1014.57 439.724 1014.75 439.376 1014.75 438.955V438.852H1018.32ZM1022.23 463H1017.19V452.507L1017.62 450.217H1017.26L1016.45 452.507L1009.67 463H1003.36V445.5H1008.41V455.993L1008 458.095H1008.34L1009.14 455.993L1015.94 445.5H1022.23V463ZM1035 458.061C1035 456.261 1035.74 454.911 1037.22 454.011C1038.7 453.122 1040.57 452.678 1042.84 452.678C1044.01 452.678 1045.07 452.797 1046 453.037C1046.94 453.299 1047.59 453.538 1047.95 453.754L1048.52 454.147V451.584C1048.52 450.832 1048.23 450.2 1047.66 449.687C1047.09 449.186 1046.14 448.935 1044.81 448.935C1043.85 448.935 1043 449.112 1042.24 449.465C1041.46 449.829 1041.06 450.388 1041.06 451.14H1035.89C1035.9 449.146 1036.71 447.648 1038.31 446.645C1039.91 445.654 1042.07 445.158 1044.81 445.158C1047.58 445.158 1049.72 445.694 1051.25 446.765C1052.79 447.836 1053.56 449.442 1053.56 451.584V457.053C1053.56 457.759 1053.64 458.249 1053.81 458.522C1053.98 458.796 1054.28 458.933 1054.7 458.933L1055.44 458.796V463C1055 463.228 1054.28 463.342 1053.27 463.342C1051.96 463.342 1050.96 463.057 1050.29 462.487C1049.69 461.997 1049.31 461.547 1049.15 461.137L1049.04 460.898H1048.79C1048.79 460.944 1048.73 461.046 1048.62 461.206C1048.5 461.354 1048.28 461.559 1047.95 461.821C1047.63 462.083 1047.25 462.316 1046.81 462.521C1045.64 463.068 1044.12 463.342 1042.24 463.342C1040.17 463.342 1038.44 462.892 1037.06 461.992C1035.69 461.103 1035 459.793 1035 458.061ZM1044.31 459.531C1045.21 459.531 1046.02 459.417 1046.74 459.189C1047.42 458.972 1047.89 458.75 1048.16 458.522L1048.52 458.198V457.155C1048.42 457.064 1048.3 456.967 1048.16 456.865C1047.96 456.739 1047.51 456.586 1046.81 456.403C1046.05 456.21 1045.22 456.113 1044.31 456.113C1041.55 456.113 1040.18 456.682 1040.18 457.822C1040.18 458.961 1041.55 459.531 1044.31 459.531ZM1071.19 445.5H1077.11L1069.72 453.942L1077.77 463H1071.79L1063.98 454.421V463H1058.94V445.5H1063.98V453.686L1071.19 445.5ZM1092.49 445.5H1098.4L1091.02 453.942L1099.07 463H1093.09L1085.28 454.421V463H1080.23V445.5H1085.28V453.686L1092.49 445.5ZM1100.11 458.061C1100.11 456.261 1100.85 454.911 1102.33 454.011C1103.81 453.122 1105.69 452.678 1107.95 452.678C1109.13 452.678 1110.18 452.797 1111.12 453.037C1112.05 453.299 1112.7 453.538 1113.06 453.754L1113.63 454.147V451.584C1113.63 450.832 1113.34 450.2 1112.77 449.687C1112.2 449.186 1111.25 448.935 1109.92 448.935C1108.96 448.935 1108.11 449.112 1107.36 449.465C1106.57 449.829 1106.18 450.388 1106.18 451.14H1101C1101.01 449.146 1101.82 447.648 1103.42 446.645C1105.02 445.654 1107.18 445.158 1109.92 445.158C1112.69 445.158 1114.84 445.694 1116.36 446.765C1117.9 447.836 1118.67 449.442 1118.67 451.584V457.053C1118.67 457.759 1118.75 458.249 1118.93 458.522C1119.1 458.796 1119.39 458.933 1119.81 458.933L1120.55 458.796V463C1120.12 463.228 1119.39 463.342 1118.38 463.342C1117.07 463.342 1116.08 463.057 1115.4 462.487C1114.8 461.997 1114.42 461.547 1114.26 461.137L1114.16 460.898H1113.9C1113.9 460.944 1113.84 461.046 1113.73 461.206C1113.62 461.354 1113.39 461.559 1113.06 461.821C1112.74 462.083 1112.36 462.316 1111.92 462.521C1110.76 463.068 1109.24 463.342 1107.36 463.342C1105.28 463.342 1103.56 462.892 1102.18 461.992C1100.8 461.103 1100.11 459.793 1100.11 458.061ZM1109.42 459.531C1110.32 459.531 1111.13 459.417 1111.85 459.189C1112.53 458.972 1113.01 458.75 1113.27 458.522L1113.63 458.198V457.155C1113.54 457.064 1113.42 456.967 1113.27 456.865C1113.07 456.739 1112.62 456.586 1111.92 456.403C1111.17 456.21 1110.33 456.113 1109.42 456.113C1106.67 456.113 1105.29 456.682 1105.29 457.822C1105.29 458.961 1106.67 459.531 1109.42 459.531ZM1120.72 445.5H1125.97L1131.54 457.753H1131.81L1136.39 445.5H1141.57L1134.25 463.342C1133.21 465.871 1132.11 467.671 1130.97 468.742C1129.83 469.813 1128.34 470.349 1126.5 470.349C1126.14 470.349 1125.69 470.32 1125.15 470.263C1124.69 470.218 1124.3 470.155 1123.97 470.075L1123.52 470.007V465.598C1124.17 465.894 1125.02 466.031 1126.07 466.008C1126.89 466.008 1127.52 465.826 1127.95 465.461C1128.39 465.074 1128.81 464.367 1129.21 463.342L1120.72 445.5ZM1162.44 463H1157.39V456.42H1149.05V463H1144.01V445.5H1149.05V452.08H1157.39V445.5H1162.44V463ZM1171.77 449.841H1165.22V445.5H1183.39V449.841H1176.81V463H1171.77V449.841ZM1196.55 458.505C1197.09 458.995 1197.37 459.673 1197.37 460.539C1197.37 461.405 1197.09 462.089 1196.55 462.59C1195.98 463.091 1195.26 463.342 1194.39 463.342C1193.52 463.342 1192.8 463.091 1192.24 462.59C1191.69 462.089 1191.42 461.405 1191.42 460.539C1191.42 459.673 1191.69 458.995 1192.24 458.505C1192.8 458.004 1193.52 457.753 1194.39 457.753C1195.26 457.753 1195.98 458.004 1196.55 458.505ZM1197.08 455.122H1191.56V453.208C1191.56 452.023 1191.82 451.037 1192.34 450.251C1192.87 449.465 1193.55 448.901 1194.39 448.559C1195.18 448.251 1195.97 447.978 1196.75 447.739C1197.52 447.522 1198.18 447.198 1198.75 446.765C1199.3 446.332 1199.57 445.768 1199.57 445.073C1199.57 443.671 1198.05 442.976 1195.01 442.988C1192 442.988 1190.5 443.768 1190.5 445.329V446.303H1184.98V445.329C1184.98 443.13 1185.84 441.381 1187.58 440.083C1189.31 438.795 1191.78 438.151 1195.01 438.151C1198.3 438.151 1200.8 438.75 1202.51 439.946C1204.23 441.142 1205.09 442.828 1205.09 445.004C1205.09 446.201 1204.9 447.243 1204.53 448.132C1204.15 449.021 1203.65 449.681 1203.02 450.114C1202.47 450.513 1201.82 450.895 1201.09 451.259C1200.41 451.59 1199.77 451.852 1199.16 452.045C1198.57 452.239 1198.07 452.513 1197.68 452.866C1197.28 453.23 1197.08 453.68 1197.08 454.216V455.122Z" fill="white"/>
<rect x="968" y="336" width="350" height="68" rx="34" fill="#3D5B13"/>
<rect x="854.974" y="156.864" width="350" height="116.919" rx="50" transform="rotate(12.4147 854.974 156.864)" fill="#5884E7"/>
<rect x="97.7378" y="236" width="373" height="112" rx="50" transform="rotate(26.9374 97.7378 236)" fill="#D9D9D9"/>
<rect x="468" y="467.981" width="591.107" height="91.4981" rx="45.749" transform="rotate(-52.2188 468 467.981)" fill="#5884E7"/>
<path d="M552.464 419.998L556.087 415.325L558.237 426.332L570.327 425.519L566.662 430.247L555.097 431.164L561.878 436.419L558.789 440.404L544.958 429.683L548.046 425.698L554.516 430.713L552.464 419.998ZM567.062 421.669C565.639 420.567 565.026 419.154 565.222 417.432C565.427 415.717 566.224 413.964 567.613 412.172C568.331 411.244 569.072 410.484 569.833 409.893C570.613 409.315 571.2 408.948 571.594 408.792L572.25 408.588L570.224 407.017C569.63 406.556 568.955 406.394 568.201 406.53C567.456 406.673 566.675 407.272 565.858 408.325C565.272 409.082 564.888 409.865 564.707 410.676C564.513 411.521 564.714 412.173 565.308 412.634L562.136 416.727C560.567 415.496 559.878 413.939 560.07 412.055C560.264 410.187 561.198 408.173 562.873 406.012C564.569 403.823 566.308 402.454 568.09 401.903C569.879 401.344 571.62 401.72 573.313 403.032L577.635 406.383C578.193 406.815 578.633 407.048 578.954 407.081C579.274 407.113 579.564 406.963 579.822 406.629L580.164 405.965L583.487 408.54C583.402 409.022 583.049 409.664 582.428 410.465C581.625 411.501 580.793 412.11 579.931 412.292C579.173 412.469 578.584 412.495 578.162 412.37L577.91 412.304L577.753 412.507C577.789 412.535 577.835 412.643 577.891 412.831C577.939 413.011 577.965 413.313 577.969 413.734C577.981 414.147 577.932 414.592 577.822 415.068C577.542 416.322 576.826 417.692 575.675 419.177C574.404 420.816 572.991 421.905 571.435 422.443C569.888 422.988 568.43 422.73 567.062 421.669ZM573.929 415.208C574.481 414.497 574.886 413.788 575.146 413.081C575.394 412.408 575.508 411.898 575.488 411.551L575.451 411.069L574.627 410.43C574.5 410.446 574.35 410.482 574.178 410.536C573.96 410.612 573.563 410.874 572.986 411.32C572.372 411.796 571.786 412.394 571.228 413.114C569.539 415.294 569.144 416.732 570.045 417.43C570.945 418.128 572.24 417.387 573.929 415.208ZM579.309 385.366L582.931 380.692L585.081 391.699L597.171 390.886L593.507 395.614L581.941 396.531L588.722 401.787L585.633 405.771L571.802 395.05L574.891 391.066L581.361 396.081L579.309 385.366ZM609.89 375.036C608.075 377.377 605.968 378.785 603.567 379.259C601.167 379.734 598.841 379.099 596.59 377.354C594.338 375.609 593.143 373.515 593.004 371.072C592.865 368.629 593.703 366.237 595.518 363.896C596.523 362.599 597.63 361.59 598.838 360.869C600.068 360.136 601.213 359.719 602.272 359.617C604.466 359.429 606.188 359.82 607.44 360.79L604.267 364.883C603.932 364.738 603.542 364.637 603.096 364.58C602.709 364.54 602.3 364.547 601.869 364.602C601.416 364.683 600.919 364.897 600.378 365.241C599.835 365.57 599.354 366.004 598.935 366.545C598.014 367.733 597.65 368.929 597.843 370.13C598.022 371.35 598.665 372.389 599.772 373.248C600.88 374.106 602.047 374.47 603.273 374.339C604.485 374.226 605.551 373.575 606.473 372.387C607.184 371.468 607.558 370.54 607.594 369.602C607.649 368.693 607.524 367.998 607.22 367.517L606.753 366.809L609.925 362.716C611.186 363.693 611.989 365.26 612.335 367.417C612.517 368.466 612.403 369.682 611.994 371.066C611.596 372.416 610.895 373.739 609.89 375.036ZM611.744 343.52L615.367 338.847L617.516 349.854L629.607 349.041L625.942 353.768L614.377 354.685L621.157 359.941L618.069 363.926L604.237 353.205L607.326 349.22L613.796 354.235L611.744 343.52ZM626.342 345.191C624.919 344.088 624.305 342.676 624.501 340.954C624.706 339.239 625.503 337.485 626.892 335.693C627.611 334.766 628.352 334.006 629.113 333.414C629.892 332.836 630.479 332.47 630.874 332.314L631.53 332.109L629.504 330.539C628.91 330.078 628.235 329.916 627.481 330.052C626.736 330.195 625.955 330.794 625.138 331.847C624.552 332.604 624.168 333.387 623.987 334.198C623.793 335.042 623.994 335.695 624.588 336.156L621.416 340.249C619.847 339.018 619.158 337.461 619.35 335.577C619.544 333.709 620.478 331.694 622.153 329.533C623.849 327.345 625.588 325.976 627.37 325.425C629.159 324.866 630.9 325.242 632.592 326.554L636.915 329.905C637.473 330.337 637.913 330.57 638.233 330.602C638.554 330.635 638.844 330.484 639.102 330.151L639.444 329.487L642.767 332.062C642.682 332.544 642.329 333.186 641.708 333.987C640.905 335.023 640.072 335.632 639.21 335.814C638.453 335.991 637.864 336.017 637.442 335.892L637.19 335.826L637.033 336.029C637.069 336.057 637.115 336.165 637.171 336.352C637.219 336.533 637.245 336.834 637.249 337.256C637.261 337.669 637.212 338.113 637.102 338.59C636.822 339.844 636.106 341.213 634.955 342.699C633.684 344.338 632.271 345.427 630.715 345.965C629.168 346.51 627.71 346.252 626.342 345.191ZM633.209 338.73C633.761 338.019 634.166 337.31 634.426 336.603C634.673 335.93 634.788 335.42 634.768 335.073L634.731 334.591L633.907 333.952C633.779 333.968 633.63 334.003 633.458 334.058C633.24 334.134 632.843 334.395 632.266 334.842C631.652 335.318 631.066 335.916 630.508 336.636C628.819 338.815 628.424 340.254 629.325 340.952C630.225 341.65 631.52 340.909 633.209 338.73ZM647.84 317.399L645.286 320.695C643.583 322.892 641.848 324.135 640.082 324.424C638.314 324.697 636.398 324.034 634.336 322.435L630.433 319.41L633.521 315.425L637.425 318.451C638.298 319.128 639.121 319.405 639.893 319.283C640.664 319.145 641.426 318.589 642.179 317.617L644.41 314.74L637.94 309.725L641.028 305.74L654.86 316.461L651.771 320.446L647.84 317.399ZM653.521 310.126C652.098 309.023 651.485 307.611 651.681 305.889C651.886 304.174 652.683 302.42 654.072 300.628C654.791 299.701 655.531 298.941 656.292 298.349C657.072 297.772 657.659 297.405 658.053 297.249L658.71 297.044L656.683 295.474C656.089 295.013 655.415 294.851 654.661 294.987C653.915 295.13 653.134 295.729 652.318 296.782C651.732 297.539 651.348 298.322 651.166 299.133C650.973 299.978 651.173 300.63 651.767 301.091L648.595 305.184C647.026 303.953 646.338 302.396 646.529 300.512C646.723 298.644 647.658 296.63 649.333 294.468C651.029 292.28 652.768 290.911 654.55 290.36C656.338 289.801 658.079 290.177 659.772 291.489L664.094 294.84C664.653 295.272 665.092 295.505 665.413 295.537C665.734 295.57 666.023 295.419 666.282 295.086L666.624 294.422L669.947 296.997C669.861 297.479 669.508 298.121 668.887 298.922C668.084 299.958 667.252 300.567 666.39 300.749C665.633 300.926 665.043 300.952 664.621 300.827L664.369 300.761L664.212 300.964C664.248 300.992 664.295 301.1 664.351 301.287C664.398 301.468 664.424 301.769 664.429 302.191C664.44 302.604 664.391 303.048 664.281 303.525C664.001 304.779 663.286 306.149 662.134 307.634C660.864 309.273 659.451 310.362 657.895 310.9C656.348 311.445 654.89 311.187 653.521 310.126ZM660.389 303.665C660.94 302.954 661.346 302.245 661.605 301.538C661.853 300.865 661.967 300.355 661.948 300.008L661.911 299.526L661.087 298.887C660.959 298.903 660.809 298.939 660.637 298.993C660.42 299.069 660.022 299.331 659.446 299.777C658.832 300.253 658.246 300.851 657.687 301.571C655.998 303.75 655.604 305.189 656.504 305.887C657.405 306.585 658.7 305.844 660.389 303.665ZM663.975 283.222L659.965 288.395L656.534 285.736L667.663 271.378L671.094 274.037L667.063 279.237L677.464 287.299L674.375 291.284L663.975 283.222ZM683.212 279.884L669.38 269.163L672.469 265.178L676.778 268.518L678.84 265.857C680.481 263.741 682.08 262.486 683.638 262.094C685.196 261.702 686.781 262.13 688.393 263.38C689.987 264.615 690.789 266.044 690.8 267.667C690.801 269.283 689.989 271.14 688.363 273.238L683.212 279.884ZM686.199 269.139C686.17 268.526 685.836 267.971 685.197 267.476C684.566 266.987 683.95 266.805 683.349 266.93C682.757 267.062 682.077 267.623 681.309 268.614L679.655 270.748L683.423 273.669L685.078 271.535C685.845 270.544 686.219 269.746 686.199 269.139ZM705.707 257.362L702.618 261.346L696.284 256.436L696.912 255.625C697.372 255.031 697.468 254.442 697.2 253.859C696.931 253.276 696.286 252.481 695.265 251.473L688.362 244.674L697.586 232.774L708.23 241.024L709.706 239.12L716.041 244.03L712.952 248.015L709.805 245.575L702.56 254.922L705.707 257.362ZM697.685 239.229L694.324 243.565L699.055 248.313C699.521 248.79 699.873 249.257 700.11 249.715C700.353 250.163 700.453 250.499 700.408 250.724L700.322 251.003L700.43 251.087L705.141 245.009L697.685 239.229ZM720.786 231.967C718.971 234.308 716.863 235.716 714.463 236.19C712.062 236.665 709.737 236.03 707.485 234.285C705.234 232.54 704.039 230.446 703.9 228.003C703.761 225.56 704.599 223.168 706.414 220.827C708.229 218.485 710.336 217.077 712.737 216.603C715.137 216.128 717.463 216.763 719.714 218.508C721.965 220.253 723.16 222.347 723.299 224.79C723.438 227.233 722.6 229.625 720.786 231.967ZM717.368 229.318C718.283 228.138 718.65 226.938 718.472 225.719C718.293 224.499 717.649 223.46 716.542 222.601C715.434 221.743 714.267 221.379 713.042 221.51C711.816 221.641 710.746 222.296 709.831 223.476C708.91 224.664 708.546 225.859 708.739 227.061C708.917 228.281 709.561 229.32 710.668 230.179C711.776 231.037 712.943 231.401 714.168 231.27C715.38 231.157 716.447 230.506 717.368 229.318ZM722.87 200.154L726.493 195.48L728.643 206.488L740.733 205.675L737.068 210.402L725.503 211.319L732.284 216.575L729.195 220.56L715.364 209.839L718.452 205.854L724.922 210.869L722.87 200.154ZM726.807 195.075L730.021 190.928L743.119 194.032L743.287 193.816L736.408 182.689L739.58 178.596L749.201 195.308C750.558 197.686 751.31 199.653 751.459 201.21C751.607 202.766 751.116 204.274 749.985 205.733C749.769 206.012 749.471 206.35 749.091 206.747C748.775 207.08 748.485 207.352 748.22 207.564L747.893 207.874L744.409 205.172C745.041 204.841 745.669 204.253 746.293 203.411C746.795 202.763 747.035 202.156 747.012 201.59C746.978 201.002 746.678 200.236 746.112 199.292L726.807 195.075ZM755.433 173.738L755.538 173.602L754.158 172.23L750.385 164.657L754.678 159.119L768.509 169.84L765.42 173.824L757.478 167.668L756.074 166.104L755.823 166.428L757.07 168.195L759.814 174.084L756.851 177.907L750.463 176.718L748.442 175.951L748.19 176.275L750.055 177.245L757.997 183.401L754.909 187.386L741.077 176.665L745.37 171.127L753.645 172.892L755.318 173.886L755.433 173.738ZM776.377 145.407L777.367 146.305L768.468 157.786C769.296 158.428 770.263 158.651 771.366 158.454C772.465 158.282 773.482 157.593 774.418 156.386C774.948 155.702 775.306 154.999 775.49 154.277C775.654 153.583 775.682 153.063 775.573 152.72L775.448 152.212L778.83 147.849C778.942 147.965 779.068 148.127 779.208 148.337C779.378 148.584 779.58 149.057 779.815 149.758C780.081 150.512 780.222 151.278 780.24 152.056C780.24 152.892 780.027 153.902 779.6 155.084C779.157 156.326 778.46 157.559 777.511 158.784C775.682 161.143 773.564 162.565 771.157 163.048C768.749 163.532 766.42 162.901 764.169 161.156C761.918 159.411 760.723 157.318 760.584 154.875C760.445 152.432 761.283 150.04 763.097 147.698C764.898 145.375 766.999 143.976 769.399 143.501C771.8 143.027 774.125 143.662 776.377 145.407ZM769.125 148.067C768.062 148.267 767.084 148.943 766.19 150.096C765.297 151.248 764.894 152.363 764.982 153.44C765.065 154.542 765.43 155.345 766.079 155.847L771.711 148.58C771.045 148.064 770.183 147.893 769.125 148.067ZM797.144 132.897L794.055 136.882L788.855 132.851L783.746 139.443L788.946 143.474L785.857 147.458L772.026 136.737L775.115 132.752L780.315 136.783L785.424 130.192L780.224 126.161L783.312 122.176L797.144 132.897ZM792.46 117.461L788.45 122.634L785.019 119.975L796.148 105.616L799.579 108.276L795.548 113.476L805.949 121.538L802.86 125.522L792.46 117.461ZM822.889 99.6829L809.058 88.9619L812.146 84.9772L825.978 95.6983L822.889 99.6829ZM811.697 114.122L797.865 103.401L800.954 99.4165L805.263 102.756L806.959 100.568C808.599 98.4521 810.198 97.1978 811.757 96.8056C813.315 96.4133 814.9 96.8418 816.512 98.0912C818.114 99.3336 818.917 100.763 818.918 102.379C818.927 103.985 818.115 105.842 816.481 107.949L811.697 114.122ZM814.318 103.851C814.296 103.228 813.965 102.669 813.326 102.173C812.686 101.678 812.067 101.501 811.468 101.641C810.875 101.773 810.195 102.335 809.428 103.325L808.14 104.986L811.908 107.908L813.196 106.246C813.964 105.256 814.338 104.457 814.318 103.851ZM831.764 80.8962C832.486 80.7641 833.19 80.9633 833.874 81.4938C834.558 82.0243 834.931 82.6592 834.992 83.3985C835.04 84.1559 834.798 84.8767 834.268 85.5611C833.73 86.2545 833.092 86.6682 832.354 86.8024C831.623 86.9275 830.915 86.7248 830.231 86.1943C829.546 85.6639 829.178 85.0324 829.126 84.3001C829.072 83.5517 829.313 82.8309 829.851 82.1375C830.381 81.4531 831.019 81.0394 831.764 80.8962ZM829.414 78.4045L826.033 82.7674L824.52 81.5947C823.583 80.8688 822.965 80.058 822.665 79.1621C822.364 78.2663 822.337 77.3805 822.584 76.5048C822.822 75.695 823.088 74.9061 823.38 74.1382C823.677 73.4023 823.828 72.6765 823.835 71.9611C823.828 71.2636 823.55 70.702 823.001 70.2762C821.893 69.4177 820.412 70.1941 818.557 72.6053C816.715 74.9826 816.41 76.6494 817.644 77.6056L818.414 78.2024L815.032 82.5653L814.262 81.9685C812.524 80.6214 811.672 78.8656 811.707 76.7011C811.75 74.5437 812.759 72.1908 814.735 69.6424C816.752 67.04 818.757 65.4299 820.749 64.812C822.749 64.1852 824.608 64.5383 826.328 65.8715C827.274 66.6044 827.983 67.3916 828.455 68.2332C828.927 69.0748 829.142 69.8758 829.1 70.6363C829.073 71.3219 828.981 72.0645 828.822 72.8641C828.664 73.6068 828.477 74.2761 828.26 74.8721C828.05 75.459 827.963 76.0182 827.998 76.5497C828.042 77.0883 828.275 77.5215 828.698 77.8496L829.414 78.4045Z" fill="white"/>
<rect x="263.737" y="243.63" width="318.819" height="91.4981" rx="45.749" transform="rotate(4.6927 263.737 243.63)" fill="#3D5B13"/>
<rect x="738.915" y="357.746" width="243.084" height="57.327" rx="28.6635" transform="rotate(-15.5507 738.915 357.746)" fill="#D9D9D9"/>
<path d="M789.965 386.074C787.111 386.868 784.58 386.738 782.371 385.686C780.162 384.633 778.676 382.734 777.912 379.99C777.149 377.246 777.441 374.853 778.788 372.811C780.136 370.768 782.236 369.35 785.09 368.556C787.944 367.762 790.475 367.891 792.684 368.944C794.893 369.997 796.379 371.895 797.143 374.639C797.906 377.383 797.614 379.776 796.267 381.819C794.919 383.861 792.818 385.28 789.965 386.074ZM788.806 381.908C790.243 381.508 791.255 380.765 791.84 379.68C792.425 378.595 792.529 377.377 792.154 376.027C791.778 374.677 791.06 373.689 789.998 373.062C788.937 372.435 787.687 372.321 786.249 372.721C784.8 373.124 783.794 373.865 783.231 374.945C782.646 376.03 782.542 377.247 782.917 378.598C783.293 379.948 784.012 380.936 785.073 381.563C786.113 382.196 787.357 382.311 788.806 381.908ZM804.389 367.532L804.554 367.486C804.61 367.305 804.782 367.008 805.069 366.597C805.294 366.298 805.572 366.002 805.904 365.709C806.786 364.967 807.995 364.382 809.531 363.954C812.1 363.239 814.309 363.358 816.158 364.31C818.011 365.273 819.27 366.95 819.936 369.343C820.608 371.758 820.264 373.9 818.903 375.768C817.557 377.645 815.462 378.979 812.62 379.77C809.678 380.588 807.085 380.364 804.84 379.096C802.598 377.84 800.964 375.367 799.938 371.679C799 368.31 799.051 365.369 800.09 362.856C801.111 360.361 803.234 358.664 806.461 357.766C807.592 357.451 808.337 357.09 808.697 356.683C809.064 356.261 809.15 355.699 808.955 354.997L814.059 353.577C814.209 354.031 814.289 354.275 814.298 354.308C814.774 356.021 814.598 357.471 813.77 358.659C812.931 359.851 811.161 360.822 808.461 361.573C806.738 362.053 805.54 362.848 804.867 363.957C804.2 365.089 804.041 366.28 804.389 367.532ZM811.497 375.736C812.869 375.354 813.867 374.71 814.489 373.803C815.112 372.897 815.268 371.884 814.956 370.764C814.648 369.656 813.993 368.874 812.991 368.42C812.007 367.984 810.823 367.959 809.44 368.343C808.156 368.701 807.186 369.337 806.53 370.253C805.866 371.183 805.684 372.185 805.983 373.261C806.286 374.348 806.961 375.118 808.01 375.571C809.039 376.041 810.202 376.096 811.497 375.736ZM818.143 359.713L823.198 358.306L831.85 368.618L832.113 368.545L833.241 355.512L838.23 354.124L835.966 373.273C835.634 375.991 835.063 378.018 834.253 379.356C833.442 380.693 832.148 381.609 830.37 382.104C830.029 382.198 829.588 382.291 829.046 382.383C828.595 382.461 828.199 382.506 827.86 382.518L827.413 382.571L826.231 378.324C826.936 378.435 827.791 378.339 828.794 378.036C829.585 377.816 830.139 377.473 830.459 377.005C830.783 376.513 831 375.719 831.109 374.625L818.143 359.713ZM855.418 362.344L851.401 363.461C848.722 364.207 846.589 364.168 845 363.344C843.419 362.507 842.278 360.832 841.579 358.318L840.255 353.56L845.112 352.209L846.436 356.967C846.732 358.031 847.226 358.745 847.919 359.109C848.619 359.458 849.562 359.467 850.747 359.137L854.254 358.162L852.06 350.275L856.917 348.924L861.608 365.783L856.751 367.135L855.418 362.344ZM882.493 350.889L882.752 352.201L868.757 356.095C869.038 357.105 869.68 357.86 870.683 358.362C871.667 358.88 872.894 358.935 874.365 358.526C875.199 358.294 875.906 357.943 876.485 357.475C877.032 357.015 877.364 356.615 877.482 356.275L877.685 355.793L883.003 354.313C883.024 354.473 883.028 354.678 883.015 354.93C883.003 355.229 882.883 355.73 882.652 356.433C882.415 357.196 882.072 357.895 881.621 358.529C881.122 359.2 880.348 359.882 879.3 360.576C878.202 361.307 876.907 361.881 875.414 362.296C872.539 363.096 869.991 362.972 867.771 361.922C865.551 360.872 864.06 358.975 863.296 356.231C862.532 353.487 862.824 351.094 864.172 349.051C865.519 347.009 867.62 345.591 870.474 344.796C873.306 344.008 875.826 344.141 878.035 345.194C880.244 346.247 881.73 348.145 882.493 350.889ZM875.088 348.692C874.116 348.218 872.928 348.176 871.523 348.567C870.118 348.958 869.129 349.611 868.556 350.528C867.965 351.461 867.779 352.323 867.999 353.113L876.856 350.648C876.63 349.836 876.041 349.184 875.088 348.692ZM906.621 353.258L901.764 354.609L900.001 348.27L891.966 350.506L893.73 356.845L888.873 358.196L884.182 341.337L889.038 339.985L890.802 346.324L898.837 344.088L897.073 337.75L901.93 336.398L906.621 353.258ZM929.507 346.889L924.65 348.241L921.837 338.132L921.635 335.811L921.289 335.907L921.129 338.329L917.406 350.257L911.33 351.947L906.639 335.088L911.496 333.736L914.309 343.845L914.477 345.98L914.806 345.889L915.017 343.648L918.757 331.716L924.815 330.03L929.507 346.889ZM950.392 331.995L950.651 333.307L936.656 337.201C936.937 338.211 937.579 338.967 938.582 339.468C939.566 339.987 940.793 340.041 942.264 339.632C943.098 339.4 943.805 339.049 944.384 338.581C944.93 338.121 945.262 337.721 945.381 337.381L945.584 336.899L950.901 335.419C950.922 335.579 950.926 335.785 950.914 336.037C950.902 336.335 950.781 336.836 950.551 337.539C950.314 338.302 949.971 339.001 949.52 339.635C949.021 340.306 948.247 340.989 947.198 341.683C946.101 342.414 944.806 342.987 943.313 343.402C940.437 344.202 937.89 344.078 935.67 343.028C933.45 341.978 931.958 340.081 931.195 337.337C930.431 334.593 930.723 332.2 932.071 330.157C933.418 328.115 935.519 326.697 938.373 325.903C941.205 325.115 943.725 325.247 945.934 326.3C948.142 327.353 949.629 329.251 950.392 331.995ZM942.987 329.798C942.015 329.324 940.827 329.282 939.422 329.673C938.017 330.064 937.028 330.717 936.455 331.634C935.863 332.567 935.677 333.429 935.897 334.219L944.755 331.754C944.529 330.942 943.94 330.29 942.987 329.798Z" fill="black"/>
<rect x="1300" y="469.24" width="497.713" height="91.4981" rx="45.749" transform="rotate(-58.6387 1300 469.24)" fill="#D9D9D9"/>
<path d="M187.17 352.049L191.543 354.271L197.505 342.54L201.999 344.824L196.037 356.555L200.41 358.777L206.372 347.046L210.866 349.33L202.937 364.931L180.709 353.635L188.638 338.034L193.132 340.318L187.17 352.049ZM226.132 357.088L231.403 359.767L220.997 363.949L224.069 375.67L218.736 372.96L215.661 361.774L211.774 369.422L207.28 367.138L215.208 351.537L219.702 353.821L215.994 361.119L226.132 357.088ZM233.741 380.969C231.1 379.627 229.321 377.822 228.403 375.553C227.486 373.285 227.672 370.881 228.962 368.342C230.253 365.803 232.085 364.235 234.458 363.639C236.831 363.044 239.338 363.417 241.979 364.759C244.62 366.101 246.399 367.906 247.316 370.174C248.234 372.443 248.048 374.846 246.757 377.386C245.467 379.925 243.635 381.492 241.262 382.088C238.888 382.684 236.381 382.311 233.741 380.969ZM235.7 377.114C237.03 377.791 238.278 377.926 239.442 377.521C240.606 377.116 241.506 376.289 242.141 375.04C242.776 373.79 242.914 372.576 242.555 371.397C242.195 370.217 241.351 369.289 240.02 368.613C238.679 367.932 237.437 367.799 236.293 368.214C235.128 368.619 234.229 369.447 233.594 370.696C232.959 371.945 232.821 373.16 233.18 374.339C233.519 375.508 234.359 376.433 235.7 377.114ZM250.161 380.534L255.841 372.187L269.293 379.023L261.365 394.624L256.87 392.34L262.832 380.609L257.82 378.062L253.938 383.738C252.585 385.721 251.257 386.964 249.955 387.465C248.652 387.966 247.234 387.826 245.7 387.047C244.969 386.675 244.431 386.3 244.087 385.921L243.859 385.728L245.842 381.828C246.146 382.085 246.45 382.29 246.755 382.445C247.344 382.745 247.897 382.738 248.413 382.425C248.935 382.103 249.518 381.472 250.161 380.534ZM282.009 405.116L289.937 389.515L294.431 391.799L286.503 407.4L282.009 405.116ZM265.722 396.839L273.651 381.238L278.145 383.522L275.675 388.382L278.143 389.636C280.53 390.849 282.063 392.184 282.741 393.641C283.419 395.097 283.296 396.735 282.373 398.553C281.454 400.361 280.201 401.417 278.614 401.723C277.038 402.034 275.061 401.585 272.685 400.377L265.722 396.839ZM276.303 397.481C276.911 397.343 277.397 396.913 277.764 396.191C278.13 395.47 278.188 394.829 277.937 394.267C277.696 393.71 277.017 393.147 275.9 392.579L274.026 391.627L271.866 395.878L273.74 396.83C274.857 397.398 275.711 397.615 276.303 397.481Z" fill="#1E1E1E"/>
<path d="M1130.88 381H1110.8V356.493H1130.88V361.159H1116.32V366.2H1128.61V370.678H1116.32V376.352H1130.88V381ZM1135.62 356.493H1154.52V361.33H1141.14V381H1135.62V356.493ZM1174.53 370.78H1166.24V366.576H1174.53C1174.53 366.132 1174.35 365.488 1174 364.645C1173.74 364.053 1173.39 363.494 1172.94 362.97C1172.51 362.48 1171.84 362.036 1170.94 361.637C1170.05 361.25 1169.01 361.056 1167.81 361.056C1166.73 361.056 1165.76 361.227 1164.89 361.569C1164.04 361.899 1163.38 362.332 1162.93 362.868C1162.06 363.882 1161.54 364.827 1161.37 365.705L1161.3 366.234H1155.39C1155.39 363.34 1156.53 360.937 1158.81 359.022C1161.08 357.108 1164.08 356.151 1167.81 356.151C1171.71 356.151 1174.8 357.279 1177.09 359.535C1179.37 361.814 1180.51 364.884 1180.51 368.747C1180.51 372.62 1179.37 375.685 1177.09 377.941C1174.82 380.208 1171.72 381.342 1167.81 381.342C1164.08 381.342 1161.08 380.385 1158.81 378.471C1156.53 376.568 1155.39 374.17 1155.39 371.276H1161.3C1161.33 371.424 1161.36 371.606 1161.41 371.823C1161.46 372.096 1161.63 372.512 1161.9 373.07C1162.17 373.663 1162.52 374.187 1162.94 374.643C1163.37 375.098 1164 375.514 1164.86 375.89C1165.69 376.266 1166.68 376.454 1167.81 376.454C1168.93 376.454 1169.94 376.266 1170.86 375.89C1171.77 375.514 1172.45 375.036 1172.91 374.455C1173.78 373.338 1174.3 372.301 1174.46 371.344L1174.53 370.78Z" fill="white"/>
<path d="M366.507 296.878L366.678 296.887C366.788 296.733 367.046 296.507 367.449 296.209C367.757 295.997 368.115 295.804 368.523 295.632C369.595 295.209 370.928 295.039 372.52 295.123C375.183 295.263 377.239 296.078 378.69 297.569C380.139 299.072 380.799 301.063 380.669 303.543C380.537 306.046 379.529 307.967 377.645 309.306C375.771 310.656 373.361 311.254 370.415 311.099C367.365 310.939 364.978 309.901 363.254 307.985C361.528 306.08 360.766 303.216 360.967 299.393C361.15 295.9 362.135 293.128 363.92 291.077C365.681 289.036 368.234 288.104 371.579 288.28C372.751 288.341 373.573 288.236 374.043 287.964C374.526 287.682 374.786 287.176 374.825 286.448L380.115 286.726C380.113 287.205 380.111 287.462 380.109 287.496C380.016 289.271 379.387 290.59 378.224 291.453C377.049 292.315 375.062 292.673 372.263 292.526C370.477 292.432 369.088 292.804 368.097 293.641C367.105 294.502 366.575 295.581 366.507 296.878ZM370.634 306.918C372.056 306.993 373.207 306.699 374.086 306.038C374.965 305.377 375.435 304.466 375.496 303.306C375.556 302.157 375.184 301.207 374.379 300.458C373.585 299.731 372.47 299.33 371.037 299.255C369.706 299.185 368.584 299.48 367.67 300.139C366.745 300.809 366.253 301.702 366.195 302.817C366.136 303.943 366.531 304.888 367.381 305.652C368.207 306.425 369.292 306.847 370.634 306.918ZM384.003 306.525C384.098 304.727 384.908 303.418 386.435 302.597C387.96 301.787 389.855 301.442 392.119 301.561C393.291 301.622 394.337 301.797 395.258 302.085C396.177 302.396 396.813 302.669 397.166 302.904L397.708 303.326L397.843 300.766C397.882 300.015 397.631 299.369 397.089 298.827C396.546 298.297 395.609 297.996 394.278 297.927C393.323 297.876 392.46 298.008 391.691 298.321C390.886 298.644 390.465 299.181 390.425 299.932L385.254 299.66C385.37 297.669 386.256 296.216 387.913 295.299C389.558 294.393 391.746 294.011 394.476 294.155C397.241 294.3 399.358 294.948 400.826 296.097C402.306 297.247 402.99 298.892 402.877 301.031L402.59 306.492C402.553 307.198 402.613 307.691 402.769 307.973C402.925 308.255 403.214 308.407 403.635 308.43L404.376 308.332L404.155 312.53C403.711 312.735 402.983 312.811 401.97 312.757C400.662 312.689 399.687 312.352 399.045 311.748C398.468 311.227 398.111 310.758 397.973 310.34L397.883 310.095L397.627 310.082C397.625 310.127 397.562 310.227 397.44 310.38C397.319 310.522 397.086 310.715 396.742 310.96C396.41 311.204 396.017 311.418 395.562 311.599C394.373 312.084 392.84 312.278 390.962 312.179C388.892 312.07 387.192 311.53 385.862 310.559C384.532 309.599 383.912 308.255 384.003 306.525ZM393.227 308.482C394.126 308.529 394.94 308.458 395.669 308.268C396.363 308.087 396.847 307.89 397.12 307.676L397.496 307.371L397.55 306.33C397.464 306.234 397.35 306.131 397.207 306.021C397.02 305.886 396.579 305.709 395.883 305.489C395.142 305.257 394.317 305.116 393.407 305.068C390.653 304.924 389.247 305.42 389.187 306.558C389.127 307.696 390.474 308.337 393.227 308.482ZM409.378 305.309L411.184 295.375L426.253 296.167L425.335 313.643L420.3 313.378L420.991 300.237L415.376 299.942L414.131 306.705C413.698 309.067 412.989 310.741 412.001 311.727C411.014 312.713 409.661 313.161 407.943 313.071C407.124 313.028 406.48 312.903 406.012 312.696L405.726 312.612L405.955 308.243C406.337 308.355 406.699 308.419 407.04 308.437C407.7 308.472 408.203 308.242 408.548 307.746C408.894 307.24 409.171 306.427 409.378 305.309ZM431.598 306.476L433.404 296.543L448.473 297.335L447.555 314.81L442.521 314.546L443.211 301.405L437.596 301.11L436.351 307.873C435.919 310.234 435.209 311.908 434.222 312.895C433.234 313.881 431.882 314.329 430.164 314.239C429.344 314.196 428.701 314.071 428.232 313.864L427.946 313.78L428.175 309.411C428.558 309.522 428.919 309.587 429.261 309.605C429.92 309.64 430.423 309.409 430.769 308.914C431.115 308.407 431.391 307.595 431.598 306.476ZM470.68 316.026L471.598 298.55L476.633 298.814L475.714 316.29L470.68 316.026ZM452.436 315.067L453.354 297.591L458.389 297.856L458.103 303.3L460.868 303.445C463.541 303.586 465.484 304.184 466.694 305.24C467.905 306.296 468.457 307.843 468.35 309.879C468.244 311.904 467.528 313.378 466.201 314.301C464.886 315.225 462.898 315.617 460.235 315.477L452.436 315.067ZM462.368 311.362C462.867 310.989 463.138 310.398 463.18 309.59C463.223 308.783 463.015 308.173 462.557 307.761C462.111 307.349 461.262 307.111 460.011 307.045L457.912 306.935L457.662 311.696L459.761 311.807C461.012 311.872 461.881 311.724 462.368 311.362Z" fill="white"/>
<path d="M1358.57 453.134C1360.8 452.595 1363.11 453.057 1365.51 454.522C1367.92 455.986 1369.39 457.83 1369.93 460.053C1370.47 462.293 1370.12 464.439 1368.87 466.491C1368.18 467.62 1367.39 468.512 1366.49 469.168C1365.6 469.85 1364.87 470.247 1364.31 470.358L1363.51 470.514L1363.4 470.703L1371.2 475.462L1368.58 479.767L1347.65 467.013L1350.28 462.708L1352.73 464.202L1352.86 463.983C1352.71 463.755 1352.54 463.312 1352.35 462.652C1352.23 462.151 1352.16 461.646 1352.13 461.138C1352.12 460.579 1352.21 459.927 1352.41 459.182C1352.61 458.427 1352.92 457.709 1353.34 457.028C1354.59 454.976 1356.33 453.677 1358.57 453.134ZM1364.96 461.792C1364.69 460.599 1363.98 459.649 1362.82 458.943C1361.67 458.244 1360.49 458.04 1359.29 458.333C1358.1 458.637 1357.12 459.427 1356.34 460.701C1355.57 461.976 1355.32 463.21 1355.59 464.404C1355.88 465.609 1356.6 466.562 1357.75 467.261C1358.94 467.985 1360.12 468.184 1361.29 467.857C1362.48 467.543 1363.46 466.759 1364.22 465.504C1365.01 464.22 1365.25 462.982 1364.96 461.792ZM1377.71 434.514L1378.79 435.295L1371.23 447.7C1372.13 448.245 1373.11 448.359 1374.19 448.04C1375.26 447.746 1376.19 446.948 1376.99 445.644C1377.44 444.905 1377.72 444.166 1377.82 443.428C1377.9 442.719 1377.87 442.2 1377.73 441.871L1377.54 441.38L1380.42 436.667C1380.54 436.769 1380.69 436.917 1380.85 437.109C1381.04 437.335 1381.3 437.784 1381.61 438.454C1381.96 439.174 1382.18 439.919 1382.29 440.689C1382.38 441.52 1382.28 442.547 1381.99 443.77C1381.69 445.054 1381.14 446.357 1380.33 447.681C1378.78 450.23 1376.83 451.879 1374.49 452.629C1372.15 453.378 1369.77 453.012 1367.34 451.53C1364.9 450.048 1363.48 448.1 1363.07 445.688C1362.66 443.276 1363.23 440.805 1364.77 438.276C1366.3 435.766 1368.23 434.141 1370.56 433.401C1372.89 432.661 1375.27 433.032 1377.71 434.514ZM1370.8 437.969C1369.76 438.286 1368.87 439.067 1368.11 440.313C1367.35 441.558 1367.07 442.711 1367.28 443.771C1367.49 444.857 1367.94 445.614 1368.64 446.04L1373.43 438.189C1372.71 437.751 1371.83 437.677 1370.8 437.969ZM1387.36 435.492L1372.41 426.385L1380.14 413.704L1383.85 415.963L1378.74 424.339L1389.98 431.187L1387.36 435.492ZM1406.44 404.175L1403.82 408.48L1394.86 403.02L1393.13 401.463L1392.94 401.769L1394.48 403.647L1399.91 414.901L1396.62 420.286L1381.68 411.179L1384.3 406.874L1393.27 412.335L1394.85 413.779L1395.02 413.487L1393.65 411.707L1388.23 400.438L1391.5 395.068L1406.44 404.175ZM1414.11 392.255C1412.57 394.785 1410.63 396.42 1408.3 397.16C1405.97 397.9 1403.58 397.529 1401.15 396.046C1398.72 394.564 1397.3 392.617 1396.89 390.205C1396.47 387.793 1397.04 385.322 1398.58 382.792C1400.12 380.263 1402.06 378.628 1404.39 377.888C1406.72 377.148 1409.11 377.519 1411.54 379.001C1413.97 380.484 1415.39 382.431 1415.8 384.843C1416.22 387.255 1415.65 389.726 1414.11 392.255ZM1410.42 390.005C1411.19 388.731 1411.42 387.497 1411.11 386.305C1410.8 385.113 1410.04 384.152 1408.84 383.423C1407.65 382.694 1406.45 382.463 1405.24 382.73C1404.04 382.997 1403.05 383.768 1402.27 385.043C1401.49 386.327 1401.26 387.555 1401.59 388.728C1401.9 389.92 1402.66 390.881 1403.85 391.61C1405.05 392.339 1406.25 392.57 1407.45 392.303C1408.65 392.055 1409.63 391.289 1410.42 390.005ZM1430.78 364.248L1428.15 368.553L1422.53 365.129L1418.19 372.251L1423.81 375.675L1421.19 379.98L1406.25 370.872L1408.87 366.567L1414.49 369.992L1418.83 362.87L1413.21 359.446L1415.83 355.141L1430.78 364.248ZM1428.74 358.103C1427.2 357.166 1426.43 355.831 1426.44 354.098C1426.45 352.37 1427.04 350.539 1428.22 348.603C1428.83 347.601 1429.49 346.763 1430.18 346.09C1430.89 345.428 1431.43 344.998 1431.8 344.8L1432.43 344.523L1430.24 343.188C1429.6 342.797 1428.91 342.711 1428.18 342.931C1427.45 343.157 1426.74 343.838 1426.05 344.977C1425.55 345.794 1425.26 346.615 1425.17 347.441C1425.07 348.302 1425.34 348.929 1425.99 349.32L1423.29 353.742C1421.59 352.694 1420.74 351.224 1420.72 349.33C1420.7 347.452 1421.4 345.346 1422.83 343.011C1424.27 340.647 1425.84 339.092 1427.55 338.346C1429.27 337.589 1431.04 337.769 1432.87 338.883L1437.54 341.729C1438.14 342.097 1438.6 342.279 1438.92 342.275C1439.25 342.272 1439.52 342.09 1439.74 341.73L1440 341.031L1443.59 343.219C1443.56 343.708 1443.28 344.385 1442.76 345.25C1442.07 346.369 1441.31 347.067 1440.48 347.345C1439.75 347.606 1439.16 347.697 1438.73 347.62L1438.47 347.583L1438.34 347.802C1438.38 347.826 1438.43 347.928 1438.51 348.108C1438.58 348.283 1438.64 348.579 1438.69 348.997C1438.75 349.406 1438.75 349.854 1438.69 350.34C1438.56 351.617 1438 353.058 1437.02 354.663C1435.94 356.434 1434.66 357.674 1433.17 358.382C1431.69 359.097 1430.22 359.004 1428.74 358.103ZM1434.84 350.914C1435.31 350.145 1435.63 349.395 1435.81 348.664C1435.98 347.968 1436.04 347.448 1435.98 347.106L1435.89 346.63L1435 346.088C1434.87 346.118 1434.73 346.17 1434.57 346.243C1434.36 346.343 1433.99 346.648 1433.47 347.156C1432.91 347.697 1432.4 348.357 1431.92 349.135C1430.49 351.49 1430.26 352.963 1431.23 353.556C1432.2 354.149 1433.41 353.268 1434.84 350.914ZM1439.72 335.194L1431.83 328.888L1439.69 316.002L1454.63 325.109L1452.01 329.414L1440.77 322.566L1437.84 327.367L1443.2 331.674C1445.08 333.176 1446.21 334.596 1446.61 335.933C1447.01 337.271 1446.76 338.674 1445.87 340.143C1445.44 340.843 1445.03 341.35 1444.62 341.664L1444.41 341.877L1440.68 339.6C1440.95 339.317 1441.18 339.029 1441.36 338.737C1441.7 338.173 1441.74 337.621 1441.47 337.082C1441.19 336.537 1440.6 335.907 1439.72 335.194ZM1457.17 320.935L1442.23 311.828L1444.85 307.523L1449.51 310.36L1451.26 307.485C1452.65 305.199 1454.1 303.774 1455.61 303.21C1457.11 302.646 1458.74 302.894 1460.48 303.956C1462.2 305.005 1463.16 306.336 1463.35 307.947C1463.53 309.553 1462.93 311.489 1461.55 313.755L1457.17 320.935ZM1458.94 309.924C1458.84 309.318 1458.45 308.804 1457.76 308.383C1457.08 307.968 1456.45 307.856 1455.86 308.048C1455.29 308.245 1454.67 308.879 1454.02 309.949L1452.62 312.255L1456.69 314.736L1458.09 312.43C1458.75 311.36 1459.03 310.525 1458.94 309.924ZM1477.29 287.925L1474.67 292.23L1469.05 288.806L1464.71 295.928L1470.33 299.352L1467.7 303.657L1452.76 294.55L1455.38 290.245L1461 293.669L1465.34 286.547L1459.72 283.123L1462.35 278.818L1477.29 287.925ZM1489.34 268.152L1474.4 259.044L1477.02 254.739L1491.97 263.847L1489.34 268.152ZM1479.83 283.752L1464.89 274.644L1467.52 270.339L1472.17 273.177L1473.61 270.812C1475 268.526 1476.45 267.101 1477.96 266.537C1479.46 265.973 1481.09 266.222 1482.83 267.283C1484.56 268.338 1485.52 269.669 1485.7 271.274C1485.89 272.87 1485.29 274.806 1483.9 277.083L1479.83 283.752ZM1481.29 273.251C1481.2 272.635 1480.81 272.117 1480.12 271.696C1479.43 271.275 1478.79 271.168 1478.21 271.375C1477.64 271.572 1477.02 272.206 1476.37 273.276L1475.28 275.071L1479.35 277.552L1480.44 275.757C1481.1 274.687 1481.38 273.852 1481.29 273.251ZM1497.04 238.702L1498.13 239.483L1490.57 251.887C1491.46 252.433 1492.45 252.546 1493.52 252.227C1494.6 251.934 1495.53 251.135 1496.32 249.832C1496.78 249.092 1497.05 248.353 1497.15 247.616C1497.24 246.907 1497.21 246.388 1497.06 246.059L1496.88 245.568L1499.75 240.854C1499.88 240.957 1500.02 241.104 1500.19 241.297C1500.38 241.523 1500.63 241.971 1500.95 242.642C1501.3 243.361 1501.52 244.106 1501.63 244.877C1501.72 245.708 1501.62 246.735 1501.33 247.958C1501.03 249.242 1500.47 250.545 1499.67 251.868C1498.11 254.417 1496.17 256.067 1493.83 256.816C1491.49 257.566 1489.11 257.2 1486.67 255.718C1484.24 254.235 1482.82 252.288 1482.41 249.876C1482 247.464 1482.56 244.993 1484.1 242.464C1485.63 239.954 1487.56 238.328 1489.9 237.588C1492.23 236.848 1494.61 237.22 1497.04 238.702ZM1490.13 242.157C1489.1 242.474 1488.2 243.255 1487.45 244.5C1486.69 245.746 1486.41 246.898 1486.62 247.959C1486.82 249.045 1487.28 249.801 1487.98 250.228L1492.76 242.377C1492.04 241.938 1491.17 241.865 1490.13 242.157ZM1520.76 216.594L1518.14 220.899L1506.9 214.05L1502.55 221.201L1513.78 228.049L1511.16 232.354L1496.22 223.247L1505.82 207.486L1520.76 216.594ZM1528.43 204.674C1526.89 207.203 1524.95 208.838 1522.62 209.578C1520.29 210.318 1517.9 209.947 1515.47 208.465C1513.04 206.982 1511.62 205.035 1511.21 202.623C1510.8 200.211 1511.36 197.74 1512.9 195.211C1514.44 192.681 1516.38 191.046 1518.71 190.306C1521.04 189.566 1523.43 189.937 1525.86 191.42C1528.29 192.902 1529.71 194.849 1530.12 197.261C1530.54 199.673 1529.97 202.144 1528.43 204.674ZM1524.74 202.423C1525.51 201.149 1525.74 199.916 1525.43 198.724C1525.12 197.531 1524.36 196.571 1523.16 195.841C1521.97 195.112 1520.77 194.881 1519.56 195.148C1518.36 195.415 1517.37 196.186 1516.59 197.461C1515.81 198.745 1515.58 199.973 1515.91 201.146C1516.22 202.338 1516.98 203.299 1518.18 204.028C1519.37 204.758 1520.57 204.989 1521.78 204.721C1522.97 204.474 1523.95 203.708 1524.74 202.423ZM1531.49 169.412C1533.71 168.872 1536.02 169.335 1538.43 170.799C1540.83 172.264 1542.3 174.108 1542.84 176.331C1543.38 178.57 1543.03 180.716 1541.78 182.769C1541.09 183.898 1540.3 184.79 1539.41 185.446C1538.51 186.128 1537.78 186.524 1537.22 186.636L1536.43 186.791L1536.31 186.981L1544.12 191.739L1541.49 196.044L1520.57 183.291L1523.19 178.986L1525.64 180.48L1525.78 180.261C1525.62 180.033 1525.45 179.589 1525.27 178.93C1525.14 178.429 1525.07 177.924 1525.05 177.416C1525.03 176.857 1525.12 176.205 1525.32 175.46C1525.53 174.705 1525.84 173.987 1526.25 173.306C1527.5 171.253 1529.25 169.955 1531.49 169.412ZM1537.88 178.07C1537.6 176.876 1536.89 175.927 1535.73 175.221C1534.58 174.521 1533.41 174.318 1532.2 174.611C1531.01 174.915 1530.03 175.704 1529.26 176.979C1528.48 178.253 1528.23 179.487 1528.5 180.681C1528.79 181.887 1529.51 182.84 1530.66 183.539C1531.85 184.263 1533.03 184.461 1534.2 184.135C1535.39 183.821 1536.37 183.037 1537.14 181.782C1537.92 180.497 1538.17 179.26 1537.88 178.07ZM1538.79 161.733L1535.38 167.323L1531.67 165.064L1541.13 149.551L1544.84 151.81L1541.41 157.428L1552.65 164.277L1550.02 168.582L1538.79 161.733ZM1552.4 155.198C1550.86 154.261 1550.09 152.926 1550.1 151.193C1550.11 149.466 1550.7 147.634 1551.88 145.698C1552.49 144.696 1553.14 143.858 1553.83 143.185C1554.54 142.524 1555.09 142.094 1555.46 141.895L1556.09 141.618L1553.9 140.284C1553.26 139.892 1552.57 139.807 1551.84 140.026C1551.11 140.252 1550.4 140.934 1549.71 142.072C1549.21 142.889 1548.92 143.711 1548.83 144.537C1548.73 145.398 1549 146.024 1549.64 146.415L1546.95 150.837C1545.25 149.79 1544.39 148.319 1544.37 146.426C1544.36 144.548 1545.06 142.441 1546.48 140.106C1547.93 137.742 1549.5 136.187 1551.21 135.441C1552.92 134.685 1554.7 134.864 1556.53 135.979L1561.2 138.825C1561.8 139.192 1562.26 139.374 1562.58 139.371C1562.91 139.367 1563.18 139.185 1563.4 138.825L1563.66 138.127L1567.25 140.315C1567.22 140.803 1566.94 141.48 1566.41 142.346C1565.73 143.465 1564.97 144.163 1564.14 144.44C1563.4 144.701 1562.82 144.793 1562.39 144.715L1562.13 144.678L1562 144.897C1562.04 144.921 1562.09 145.023 1562.17 145.203C1562.24 145.378 1562.3 145.674 1562.35 146.093C1562.41 146.502 1562.41 146.949 1562.35 147.435C1562.21 148.712 1561.66 150.153 1560.68 151.758C1559.6 153.529 1558.32 154.769 1556.83 155.478C1555.35 156.192 1553.88 156.099 1552.4 155.198ZM1558.5 148.009C1558.97 147.241 1559.29 146.491 1559.47 145.759C1559.64 145.063 1559.7 144.543 1559.64 144.201L1559.55 143.726L1558.66 143.183C1558.53 143.214 1558.39 143.265 1558.22 143.338C1558.02 143.439 1557.65 143.743 1557.13 144.251C1556.57 144.792 1556.06 145.452 1555.58 146.231C1554.15 148.585 1553.92 150.059 1554.89 150.652C1555.86 151.244 1557.06 150.364 1558.5 148.009ZM1563.38 132.289L1555.49 125.983L1563.35 113.097L1578.29 122.204L1575.67 126.509L1564.43 119.661L1561.5 124.462L1566.86 128.77C1568.74 130.272 1569.87 131.691 1570.27 133.029C1570.67 134.366 1570.42 135.769 1569.53 137.238C1569.1 137.939 1568.68 138.446 1568.28 138.759L1568.07 138.972L1564.33 136.695C1564.61 136.412 1564.84 136.124 1565.02 135.832C1565.36 135.268 1565.4 134.716 1565.13 134.177C1564.85 133.632 1564.26 133.003 1563.38 132.289ZM1590.34 102.43L1575.4 93.3232L1578.02 89.0182L1592.96 98.1254L1590.34 102.43ZM1580.83 118.031L1565.89 108.923L1568.51 104.618L1573.17 107.456L1574.61 105.091C1576 102.805 1577.45 101.38 1578.96 100.816C1580.46 100.252 1582.08 100.5 1583.82 101.562C1585.56 102.617 1586.51 103.948 1586.7 105.553C1586.88 107.149 1586.28 109.085 1584.9 111.362L1580.83 118.031ZM1582.29 107.53C1582.2 106.914 1581.81 106.396 1581.12 105.975C1580.42 105.554 1579.79 105.447 1579.21 105.654C1578.64 105.851 1578.02 106.485 1577.37 107.555L1576.28 109.35L1580.35 111.831L1581.44 110.036C1582.09 108.966 1582.38 108.131 1582.29 107.53Z" fill="#1E1E1E"/>
<path d="M955.303 245.668C955.643 243.9 956.625 242.715 958.25 242.111C959.872 241.518 961.796 241.435 964.023 241.864C965.175 242.085 966.188 242.402 967.06 242.814C967.928 243.247 968.52 243.605 968.837 243.886L969.317 244.379L969.801 241.862C969.943 241.123 969.783 240.448 969.32 239.837C968.856 239.238 967.969 238.812 966.66 238.56C965.72 238.379 964.848 238.391 964.043 238.596C963.202 238.805 962.71 239.279 962.568 240.018L957.483 239.039C957.871 237.084 958.948 235.765 960.715 235.084C962.469 234.412 964.688 234.334 967.373 234.851C970.092 235.374 972.1 236.306 973.397 237.646C974.705 238.988 975.157 240.711 974.752 242.814L973.719 248.184C973.585 248.878 973.577 249.375 973.693 249.676C973.809 249.977 974.074 250.167 974.488 250.247L975.235 250.251L974.441 254.38C973.973 254.522 973.241 254.497 972.245 254.305C970.959 254.058 970.039 253.591 969.487 252.904C968.986 252.309 968.696 251.795 968.617 251.362L968.562 251.108L968.31 251.06C968.301 251.104 968.226 251.194 968.084 251.329C967.944 251.453 967.687 251.613 967.313 251.808C966.951 252.005 966.532 252.162 966.057 252.279C964.812 252.597 963.267 252.578 961.421 252.223C959.385 251.831 957.775 251.063 956.591 249.919C955.405 248.786 954.976 247.369 955.303 245.668ZM964.171 248.871C965.055 249.041 965.871 249.082 966.619 248.994C967.331 248.91 967.838 248.782 968.138 248.607L968.552 248.356L968.749 247.333C968.676 247.226 968.577 247.108 968.451 246.98C968.285 246.82 967.872 246.584 967.213 246.271C966.511 245.939 965.712 245.687 964.817 245.515C962.11 244.994 960.648 245.293 960.433 246.412C960.218 247.53 961.464 248.35 964.171 248.871ZM980.184 259.539L975.233 258.587L976.747 250.716L977.754 250.91C978.492 251.052 979.061 250.871 979.459 250.368C979.858 249.864 980.276 248.93 980.713 247.563L983.655 238.331L998.44 241.176L995.895 254.4L998.262 254.855L996.747 262.726L991.797 261.774L992.549 257.863L980.936 255.629L980.184 259.539ZM992.727 244.184L987.34 243.148L985.245 249.514C985.031 250.146 984.773 250.671 984.472 251.089C984.182 251.509 983.927 251.749 983.707 251.811L983.419 251.86L983.393 251.995L990.945 253.448L992.727 244.184ZM1020.73 247.605C1022.01 249.5 1022.39 251.828 1021.86 254.592C1021.33 257.355 1020.11 259.379 1018.22 260.662C1016.31 261.954 1014.18 262.373 1011.82 261.919C1010.52 261.669 1009.41 261.24 1008.48 260.632C1007.53 260.032 1006.9 259.488 1006.6 259.001L1006.18 258.31L1005.96 258.268L1004.23 267.246L999.281 266.294L1003.91 242.228L1008.86 243.181L1008.32 246L1008.57 246.049C1008.73 245.824 1009.09 245.51 1009.64 245.106C1010.07 244.817 1010.51 244.572 1010.98 244.372C1011.5 244.158 1012.14 244.015 1012.91 243.942C1013.69 243.872 1014.47 243.912 1015.25 244.062C1017.61 244.517 1019.44 245.697 1020.73 247.605ZM1014.86 256.621C1015.88 255.947 1016.52 254.945 1016.77 253.614C1017.03 252.293 1016.81 251.12 1016.11 250.092C1015.41 249.088 1014.33 248.444 1012.86 248.162C1011.4 247.88 1010.15 248.076 1009.13 248.749C1008.1 249.445 1007.46 250.453 1007.21 251.773C1006.95 253.138 1007.17 254.313 1007.89 255.298C1008.6 256.305 1009.68 256.947 1011.12 257.225C1012.6 257.509 1013.84 257.307 1014.86 256.621ZM1044.87 259.018L1044.51 260.308L1030.25 257.564C1030.05 258.593 1030.29 259.555 1030.96 260.451C1031.62 261.353 1032.69 261.949 1034.19 262.237C1035.04 262.401 1035.83 262.402 1036.56 262.24C1037.25 262.072 1037.72 261.862 1037.98 261.609L1038.38 261.268L1043.8 262.311C1043.75 262.463 1043.66 262.649 1043.53 262.869C1043.39 263.132 1043.06 263.526 1042.54 264.053C1041.99 264.631 1041.37 265.104 1040.68 265.471C1039.94 265.85 1038.94 266.116 1037.69 266.27C1036.39 266.436 1034.97 266.373 1033.45 266.08C1030.52 265.516 1028.29 264.27 1026.77 262.342C1025.25 260.413 1024.76 258.051 1025.3 255.254C1025.84 252.457 1027.16 250.444 1029.28 249.215C1031.4 247.986 1033.91 247.652 1036.82 248.211C1039.7 248.767 1041.9 250.007 1043.41 251.934C1044.92 253.86 1045.41 256.221 1044.87 259.018ZM1039.21 253.754C1038.56 252.896 1037.51 252.33 1036.08 252.054C1034.65 251.779 1033.47 251.924 1032.55 252.489C1031.6 253.061 1031.05 253.75 1030.9 254.556L1039.93 256.293C1040.09 255.465 1039.85 254.619 1039.21 253.754ZM1056.37 270.491C1053.46 269.931 1051.26 268.688 1049.75 266.762C1048.24 264.836 1047.75 262.474 1048.29 259.677C1048.83 256.88 1050.16 254.867 1052.27 253.638C1054.39 252.409 1056.9 252.075 1059.81 252.635C1061.42 252.944 1062.82 253.475 1064.01 254.226C1065.22 254.992 1066.11 255.825 1066.68 256.724C1067.84 258.594 1068.27 260.307 1067.97 261.862L1062.89 260.884C1062.86 260.52 1062.78 260.126 1062.63 259.703C1062.49 259.34 1062.3 258.978 1062.05 258.618C1061.77 258.251 1061.36 257.904 1060.81 257.578C1060.27 257.242 1059.66 257.01 1058.99 256.88C1057.52 256.596 1056.28 256.812 1055.3 257.528C1054.29 258.239 1053.66 259.282 1053.39 260.659C1053.13 262.035 1053.33 263.24 1054 264.274C1054.65 265.304 1055.71 265.961 1057.19 266.245C1058.33 266.464 1059.33 266.378 1060.18 265.985C1061.02 265.624 1061.58 265.198 1061.87 264.709L1062.29 263.972L1067.38 264.95C1067.08 266.516 1066.04 267.942 1064.27 269.226C1063.42 269.863 1062.28 270.311 1060.87 270.572C1059.48 270.828 1057.98 270.801 1056.37 270.491Z" fill="white"/>
<path d="M133.759 462.705L127.618 512.95L111.681 472.087L72.9129 514.542L92.2622 467.734L40.5846 495.67L75.0039 460.327L18.5192 450.867L67.9872 435.451L45.9217 390.648L85.2606 426.944L90.6128 375.099L103.437 423.459L122.726 371.213L116.027 426.703L150.699 389.745L123.711 442.304L174.267 417.405L133.759 462.705Z" fill="#F2C94C"/>
<path d="M1535.55 475.298L1487.17 490.157L1517.99 458.957L1463.43 440.845L1514.06 439.449L1467.49 403.633L1513.79 420.67L1499.42 365.23L1533.65 404.129L1565.58 365.726L1548.46 416.439L1597.99 400.208L1559.05 431.619L1614.62 427.953L1561.21 444.439L1609.09 461.049L1550.09 457.811L1593.43 493.84L1535.55 475.298Z" fill="#F2C94C"/>
</svg>
